<svg width="100%" height="100%" viewBox="0 0 20 21" version="1.1" xmlns="http://www.w3.org/2000/svg" xmlns:xlink="http://www.w3.org/1999/xlink" xml:space="preserve" xmlns:serif="http://www.serif.com/" style="fill-rule:evenodd;clip-rule:evenodd;stroke-linejoin:round;stroke-miterlimit:2;">
    <g transform="matrix(0.990305,0,0,0.997637,-4.94861,-5.57865)">
        <path d="M13.491,5.592L16.001,5.592L16.001,11.666C16.002,12.624 17.047,13.223 17.883,12.743L23.114,9.745L24.37,11.903L19.075,14.938C18.239,15.417 18.239,16.615 19.075,17.094L24.37,20.128L23.114,22.286L17.883,19.288C17.047,18.809 16.002,19.408 16.001,20.366L16.001,26.358L13.491,26.358L13.491,20.294C13.491,19.335 12.446,18.737 11.61,19.216L6.252,22.286L4.997,20.128L10.292,17.094C11.128,16.615 11.128,15.417 10.292,14.938L4.997,11.903L6.252,9.745L11.61,12.816C12.446,13.295 13.491,12.696 13.491,11.738L13.491,5.592Z" style="fill:rgb(8,6,5);"/>
    </g>
</svg>
